<svg height="800" viewBox="0 0 32 32" width="800" xmlns="http://www.w3.org/2000/svg"><path d="m14.573 2.729c-.729.484-4.292 2.849-7.917 5.255s-6.589 4.396-6.589 4.422.182.146.406.266c.224.13 3.797 2.109 7.953 4.411l7.542 4.193.193-.099c.109-.052 2.891-1.641 6.188-3.521l5.99-3.427.036 10.599h3.557v-12.401l-4.615-3.094c-6.219-4.167-11.188-7.448-11.307-7.474-.063-.01-.703.38-1.438.87zm-7.432 19.448.016 2.672 8.828 5.292 8.891-5.339v-2.641c0-1.458-.016-2.646-.031-2.646-.021 0-1.76 1.042-3.87 2.323l-4.406 2.661-.578.339-1.755-1.052c-1.464-.875-2.927-1.755-4.385-2.641l-2.672-1.615c-.031-.01-.042 1.177-.036 2.646z"/></svg>